<svg width="1400" height="420" viewBox="0 0 1400 420" fill="none" xmlns="http://www.w3.org/2000/svg">
  <defs>
    <mask id="velora-logo-dark-mark-cut" maskUnits="userSpaceOnUse" x="0" y="0" width="1024" height="1024">
      <rect width="1024" height="1024" fill="white" />
      <path
        d="M512 286C446 336 415 418 420 500L484 620C496 643 505 670 512 701C519 670 528 643 540 620L604 500C609 418 578 336 512 286Z"
        fill="black"
      />
    </mask>
  </defs>
  <rect width="1400" height="420" rx="36" fill="#11293B" />
  <ellipse cx="248" cy="84" rx="184" ry="112" fill="white" opacity="0.04" />
  <g transform="translate(38 36) scale(0.34)">
    <g mask="url(#velora-logo-dark-mark-cut)">
      <rect x="314" y="184" width="156" height="640" rx="78" transform="rotate(-24 392 504)" fill="#0D7A72" />
      <rect x="554" y="184" width="156" height="640" rx="78" transform="rotate(24 632 504)" fill="#0D7A72" />
    </g>
    <rect x="450" y="730" width="124" height="22" rx="11" fill="#C89A43" />
  </g>
  <text
    x="392"
    y="244"
    fill="#F5F8FB"
    font-family="Manrope, 'SF Pro Display', 'Segoe UI', sans-serif"
    font-size="152"
    font-weight="650"
    letter-spacing="10"
  >
    Velora
  </text>
</svg>
