<svg xmlns="http://www.w3.org/2000/svg" width="180" height="180" viewBox="0 0 180 180" role="img" aria-label="EDUQUEST">
  <defs>
    <linearGradient id="eduquestBg180" x1="34" y1="28" x2="146" y2="154" gradientUnits="userSpaceOnUse">
      <stop stop-color="#11293b" />
      <stop offset="1" stop-color="#0d7a72" />
    </linearGradient>
    <linearGradient id="eduquestInk180" x1="52" y1="46" x2="130" y2="130" gradientUnits="userSpaceOnUse">
      <stop stop-color="#ffffff" />
      <stop offset="1" stop-color="#edf3ff" />
    </linearGradient>
  </defs>
  <rect width="180" height="180" rx="44" fill="#edf3ff" />
  <rect x="30" y="30" width="120" height="120" rx="38" fill="url(#eduquestBg180)" />
  <rect x="33" y="33" width="114" height="114" rx="35" fill="none" stroke="rgba(255,255,255,0.16)" stroke-width="3" />
  <path d="M58 58v64" stroke="url(#eduquestInk180)" stroke-width="12.5" stroke-linecap="round" />
  <path d="M58.5 60h35" stroke="url(#eduquestInk180)" stroke-width="12.5" stroke-linecap="round" />
  <path d="M58.5 89.5H85" stroke="url(#eduquestInk180)" stroke-width="12.5" stroke-linecap="round" />
  <path d="M58.5 120h35" stroke="url(#eduquestInk180)" stroke-width="12.5" stroke-linecap="round" />
  <path d="M110 58a28 28 0 1 0 0 56 28 28 0 0 0 0-56Z" fill="none" stroke="url(#eduquestInk180)" stroke-width="12" stroke-linecap="round" stroke-linejoin="round" />
  <path d="M120 108 133 121" stroke="url(#eduquestInk180)" stroke-width="11.5" stroke-linecap="round" />
  <path d="M123 53c5.2 0 9.2 3.7 10.1 8.4" stroke="#c89a43" stroke-width="5.2" stroke-linecap="round" />
</svg>
