<svg xmlns="http://www.w3.org/2000/svg" width="64" height="64" viewBox="0 0 64 64" role="img" aria-label="EDUQUEST">
  <defs>
    <linearGradient id="eduquestBg64" x1="14" y1="12" x2="50" y2="52" gradientUnits="userSpaceOnUse">
      <stop stop-color="#11293b" />
      <stop offset="1" stop-color="#0d7a72" />
    </linearGradient>
    <linearGradient id="eduquestInk64" x1="20" y1="18" x2="48" y2="44" gradientUnits="userSpaceOnUse">
      <stop stop-color="#ffffff" />
      <stop offset="1" stop-color="#edf3ff" />
    </linearGradient>
  </defs>
  <rect width="64" height="64" rx="18" fill="#edf3ff" />
  <rect x="10" y="10" width="44" height="44" rx="14" fill="url(#eduquestBg64)" />
  <rect x="11" y="11" width="42" height="42" rx="13" fill="none" stroke="rgba(255,255,255,0.16)" stroke-width="1.1" />
  <path d="M21 21.2v21.6" stroke="url(#eduquestInk64)" stroke-width="4.5" stroke-linecap="round" />
  <path d="M21.2 21.8h13" stroke="url(#eduquestInk64)" stroke-width="4.5" stroke-linecap="round" />
  <path d="M21.2 32h10" stroke="url(#eduquestInk64)" stroke-width="4.5" stroke-linecap="round" />
  <path d="M21.2 43h13" stroke="url(#eduquestInk64)" stroke-width="4.5" stroke-linecap="round" />
  <path d="M39.8 21.3a10.4 10.4 0 1 0 0 20.8 10.4 10.4 0 0 0 0-20.8Z" fill="none" stroke="url(#eduquestInk64)" stroke-width="4.5" stroke-linecap="round" stroke-linejoin="round" />
  <path d="M43.5 39.6 48 44" stroke="url(#eduquestInk64)" stroke-width="4.5" stroke-linecap="round" />
  <path d="M44.8 19.5c2 0 3.6 1.5 3.9 3.4" stroke="#c89a43" stroke-width="2.1" stroke-linecap="round" />
</svg>
