<svg xmlns="http://www.w3.org/2000/svg" width="512" height="512" viewBox="0 0 512 512" role="img" aria-label="EDUQUEST maskable">
  <defs>
    <linearGradient id="eduquestMaskBg" x1="108" y1="94" x2="406" y2="418" gradientUnits="userSpaceOnUse">
      <stop stop-color="#11293b" />
      <stop offset="1" stop-color="#0d7a72" />
    </linearGradient>
    <linearGradient id="eduquestMaskInk" x1="156" y1="130" x2="356" y2="352" gradientUnits="userSpaceOnUse">
      <stop stop-color="#ffffff" />
      <stop offset="1" stop-color="#edf3ff" />
    </linearGradient>
  </defs>
  <rect width="512" height="512" fill="#edf3ff" />
  <rect x="92" y="92" width="328" height="328" rx="104" fill="url(#eduquestMaskBg)" />
  <rect x="100" y="100" width="312" height="312" rx="96" fill="none" stroke="rgba(255,255,255,0.16)" stroke-width="8" />
  <path d="M170 170v172" stroke="url(#eduquestMaskInk)" stroke-width="32" stroke-linecap="round" />
  <path d="M172 176h92" stroke="url(#eduquestMaskInk)" stroke-width="32" stroke-linecap="round" />
  <path d="M172 254h70" stroke="url(#eduquestMaskInk)" stroke-width="32" stroke-linecap="round" />
  <path d="M172 338h92" stroke="url(#eduquestMaskInk)" stroke-width="32" stroke-linecap="round" />
  <path d="M298 170a82 82 0 1 0 0 164 82 82 0 0 0 0-164Z" fill="none" stroke="url(#eduquestMaskInk)" stroke-width="30" stroke-linecap="round" stroke-linejoin="round" />
  <path d="M326 314 364 352" stroke="url(#eduquestMaskInk)" stroke-width="28" stroke-linecap="round" />
  <path d="M332 156c15 0 27 10.4 29.4 23.8" stroke="#c89a43" stroke-width="14" stroke-linecap="round" />
</svg>
